<?xml version="1.0" encoding="utf-8"?>
<!-- Generator: Adobe Illustrator 27.5.0, SVG Export Plug-In . SVG Version: 6.00 Build 0)  -->
<svg version="1.1" xmlns="http://www.w3.org/2000/svg" xmlns:xlink="http://www.w3.org/1999/xlink" x="0px" y="0px"
	 viewBox="0 0 3710 3710" style="enable-background:new 0 0 3710 3710;" xml:space="preserve">
<g id="Background">
	<g>
		<g>
			<rect style="fill:#FFFFFF;" width="3710" height="3710"/>
		</g>
	</g>
</g>
<g id="Illustration">
	<g>
		<path style="fill:#F4F7FA;" d="M1899.152,483.973c-308.854,124.257-338.436,441.888-616.524,469.147
			c-242.308,23.752-334.409-206.173-504.43-164.975c-258.99,62.756-421.822,687.514-317.805,1201.222
			c107.404,530.438,558.672,1235.588,1306.283,1283.71c839.353,54.028,1474.451-757.309,1513.229-1469.306
			c4.193-76.999,28.959-722.156-458.512-1103.269C2797.034,681.46,2316.674,315.997,1899.152,483.973z"/>
		<g>
			<g>
				<defs>
					<path id="SVGID_1_" d="M1378.74,1943.097l199.013-44.324c0,0,14.726-110.433-50.091-171.618
						c-132.246-124.836-13.681-231.948,29.268-284.24c64.77-78.861,87.454-176.603-36.446-189.36
						c-123.9-12.758-47.807-217.319,75.151-329.603c120.323-109.877-5.566-387.168-287.827-173.264
						c-168.565,127.743-94.841,320.208-80.718,426.252c14.124,106.044-138.679,149.111-57.423,264.4
						c69.407,98.479,172.973,158.492,124.011,247.728S1256.567,1863.491,1378.74,1943.097z"/>
				</defs>
				<clipPath id="SVGID_00000158001696278017128800000017527742160001719971_">
					<use xlink:href="#SVGID_1_"  style="overflow:visible;"/>
				</clipPath>
				
					<linearGradient id="SVGID_00000021817307716825718650000002153531425246562453_" gradientUnits="userSpaceOnUse" x1="683.2706" y1="5089.3584" x2="277.3791" y2="6242.9458" gradientTransform="matrix(0.9761 -0.2174 0.2174 0.9761 -300.4127 -4112.8169)">
					<stop  offset="0" style="stop-color:#FF9085"/>
					<stop  offset="1" style="stop-color:#FB6FBB"/>
				</linearGradient>
				
					<path style="clip-path:url(#SVGID_00000158001696278017128800000017527742160001719971_);fill:url(#SVGID_00000021817307716825718650000002153531425246562453_);" d="
					M1378.74,1943.097l199.013-44.324c0,0,14.726-110.433-50.091-171.618c-132.246-124.836-13.681-231.948,29.268-284.24
					c64.77-78.861,81.67-165.878-24.121-196.322c-119.697-34.446-60.132-210.358,62.826-322.642
					c120.323-109.877-5.566-387.168-287.827-173.264c-168.565,127.743-94.841,320.208-80.718,426.252
					c14.124,106.044-138.679,149.111-57.423,264.4c69.407,98.479,172.973,158.492,124.011,247.728
					S1256.567,1863.491,1378.74,1943.097z"/>
				<g style="opacity:0.5;clip-path:url(#SVGID_00000158001696278017128800000017527742160001719971_);">
					<path style="fill:#BEB8F2;" d="M1468.986,1942.384l3.964-1.678c-1.04-2.455-104.201-248.627-132.883-523.504
						c-26.426-253.235,6.796-583.359,315.125-717.985l-1.722-3.945c-137.254,59.928-232.342,162.903-282.624,306.062
						c-40.167,114.36-51.96,254.457-35.053,416.401C1364.56,1693.236,1467.946,1939.923,1468.986,1942.384z"/>
					<path style="fill:#BEB8F2;" d="M1352.42,1062.065l4.054-1.449c-48.181-134.915-39.216-343.802-39.121-345.896l-4.299-0.199
						C1312.958,716.625,1303.957,926.358,1352.42,1062.065z"/>
					<path style="fill:#BEB8F2;" d="M1388.537,967.596c121.805-119.616,263.36-106.765,264.774-106.621l0.436-4.281
						c-1.437-0.148-144.928-13.251-268.226,107.831L1388.537,967.596z"/>
					<path style="fill:#BEB8F2;" d="M1368.61,1595.885c2.858-208.544,261.445-317.126,264.052-317.973l-1.058-4.168
						c-2.638,0.589-264.415,111.686-267.298,322.082L1368.61,1595.885z"/>
					<path style="fill:#BEB8F2;" d="M1348.619,1512.24l3.924-1.774c-54.779-121.291-212.228-178.077-213.814-178.636l-1.434,4.058
						C1138.865,1336.443,1294.609,1392.64,1348.619,1512.24z"/>
					<path style="fill:#BEB8F2;" d="M1457.57,1901.611c-11.113-78.447,85.365-164.01,86.339-164.865l-2.836-3.236
						c-4.055,3.551-99.207,87.944-87.764,168.706L1457.57,1901.611z"/>
					<path style="fill:#BEB8F2;" d="M1432.357,1843.644l3.984-1.63c-23.716-57.983-129.779-104.837-164.633-120.233
						c-4.925-2.176-9.177-4.055-9.869-4.538l-2.517,3.491c0.966,0.696,3.789,1.953,10.647,4.984
						C1304.429,1740.941,1409.298,1787.267,1432.357,1843.644z"/>
				</g>
			</g>
			<g>
				
					<linearGradient id="SVGID_00000040574961621899671920000010681486747656464051_" gradientUnits="userSpaceOnUse" x1="5714.3232" y1="71.3083" x2="6225.3628" y2="1414.1082" gradientTransform="matrix(-0.5061 0.8625 0.8625 0.5061 3279.4084 -4249.0073)">
					<stop  offset="0" style="stop-color:#FFC444"/>
					<stop  offset="0.9964" style="stop-color:#F36F56"/>
				</linearGradient>
				<path style="fill:url(#SVGID_00000040574961621899671920000010681486747656464051_);" d="M1226.317,1404.513
					c55.135-0.28,88.434,41.554,107.787,75.602c-2.413,4.716-2.599,8.045-3.973,13.325c-12.406,47.657-27.853,65.345-47.497,110.387
					c-4.229,9.696-25.294,34.378-34.549,43.911l-17.537,17.496c0,0-126.022-14.903-125.497-87.121
					c0.525-72.217-117.369-101.556-177.909-124.795c-37.177-14.271-49.607-32.707-62.425-40.144
					c-135.691-78.722-198.363-57.443-226.762-110.147c-31.351-58.181,36.052-100.766,5.292-165.86
					c-34.735-73.503-144.001-68.552-161.328-145.456c-2.97-13.185-5.664-26.813-2.404-44.543
					c8.048-43.766,45.884-63.546,28.23-106.567c-35.484-86.472-11.894-187.49,81.988-209.055
					c92.656-21.283,189.165,105.827,210.662,316.052c32.334,147.761,57.557,162.04,125.38,184.483
					c47.505,15.722,186.719,26.875,199.798,113.259C1138.655,1331.724,1163.288,1404.834,1226.317,1404.513z"/>
				<g>
					<defs>
						<path id="SVGID_00000067953878290710541420000005836382711819579008_" d="M1355.64,1525.373l-119.391,138.245
							c0,0-131.723-13.286-131.198-85.504c0.525-72.218-117.368-101.556-177.909-124.796
							c-164.263-63.055-56.429-236.376-259.9-335.155c-54.117-26.272-167.292-57.201-185.322-126.451
							c-20.541-78.895,48.529-95.784,25.826-151.11c-35.483-86.472-11.893-187.491,81.988-209.055
							c92.656-21.283,189.165,105.827,210.663,316.051c32.334,147.762,57.557,162.04,125.379,184.484
							c47.505,15.721,186.719,26.875,199.799,113.259c13.08,86.383,37.713,159.493,100.743,159.172
							C1322.224,1404.026,1355.64,1525.373,1355.64,1525.373z"/>
					</defs>
					<clipPath id="SVGID_00000018222543203475216180000002220224847865938565_">
						<use xlink:href="#SVGID_00000067953878290710541420000005836382711819579008_"  style="overflow:visible;"/>
					</clipPath>
					<g style="opacity:0.5;clip-path:url(#SVGID_00000018222543203475216180000002220224847865938565_);">
						<path style="fill:#FCFDFE;" d="M1296.069,1581.927l-2.026,3.001c-16.674-11.032-33.34-22.379-49.536-33.725
							c-119.914-84.019-226.954-177.035-318.149-276.471c-77.271-84.256-144.274-174.286-199.146-267.591
							c-44.128-75.036-80.686-152.588-108.659-230.502c-19.663-54.773-34.914-109.157-45.324-161.643
							c-1.816-9.146-3.163-18.641-4.465-27.825c-1.735-12.235-3.529-24.887-6.449-36.809l3.356-1.088
							c2.96,12.086,4.767,24.823,6.514,37.141c1.295,9.138,2.636,18.586,4.433,27.64c10.378,52.32,25.582,106.543,45.191,161.16
							c27.902,77.721,64.375,155.088,108.401,229.951c54.759,93.113,121.629,182.964,198.751,267.057
							c91.04,99.268,197.911,192.136,317.64,276.024C1262.774,1559.578,1279.417,1570.909,1296.069,1581.927z"/>
						<path style="fill:#FCFDFE;" d="M801.774,1115.496l-2.792,2.283c-87.298-115.448-331.289-169.34-333.743-169.87l0.951-3.454
							C468.655,944.989,713.776,999.124,801.774,1115.496z"/>
						<path style="fill:#FCFDFE;" d="M1075.377,1414.438l-2.537,2.579c-68.859-70.672-47.161-269.486-46.935-271.486l3.433,0.148
							C1029.114,1147.663,1007.593,1344.87,1075.377,1414.438z"/>
						<path style="fill:#FCFDFE;" d="M1118.103,1450.823l-2.084,2.963c-52.844-36.664-146.244-56.311-262.992-55.319
							c-5.871,0.05-5.871,0.05-6.399-0.306l2.049-2.987l-1.025,1.493l0.427-1.729c0.388,0.043,2.604,0.024,5.174,0.001
							C970.668,1393.943,1064.726,1413.788,1118.103,1450.823z"/>
						<path style="fill:#FCFDFE;" d="M1265.952,1561.332l-2.783,2.292c-43.185-56.6-15.483-165.175-15.198-166.264l3.335,0.668
							C1251.025,1399.102,1223.757,1506.027,1265.952,1561.332z"/>
						<path style="fill:#FCFDFE;" d="M1293.788,1586.89c-56.544-12.255-119.597-8.031-192.761,12.914l-0.701-3.393
							c73.726-21.104,137.32-25.347,194.415-12.973L1293.788,1586.89z"/>
						<path style="fill:#FCFDFE;" d="M639.043,820.769l-2.901,2.127c-44.822-67.222-107.987-126.053-128.743-145.384
							c-5.024-4.68-6.787-6.333-7.295-7.026l2.821-2.243c0.395,0.523,3.267,3.198,6.904,6.585
							C530.651,694.221,594.016,753.24,639.043,820.769z"/>
						<path style="fill:#FCFDFE;" d="M695.241,942.299l-3.325,1.205c-21.016-74.288,55.107-217.327,58.358-223.38l3.001,1.516
							C752.486,723.108,674.617,869.398,695.241,942.299z"/>
					</g>
				</g>
			</g>
			<g>
				
					<linearGradient id="SVGID_00000172432483340542713830000013982378613989820299_" gradientUnits="userSpaceOnUse" x1="-5203.8896" y1="-1535.4928" x2="-4491.2046" y2="362.5767" gradientTransform="matrix(0.3316 -0.9434 0.9434 0.3316 4112.812 -3282.4492)">
					<stop  offset="0.0036" style="stop-color:#E38DDD"/>
					<stop  offset="1" style="stop-color:#9571F6"/>
				</linearGradient>
				<path style="fill:url(#SVGID_00000172432483340542713830000013982378613989820299_);" d="M1611.94,1765.41
					c-8.633,9.071-51.584-40.729-139.102-60.283c-21.865-4.885-139.274-39.801-196.469,32.382
					c-11.103,14.012-22.207,28.024-33.309,42.036c-41.435-11.413-78.373-29.848-58.613-82.618
					c30.686-81.95-82.423-165.313-136.61-175.564c-67.066-12.689-222.437-45.491-176.943-172.818
					c37.872-106,83.481-167.875-19.227-250.603c-102.709-82.729-124.467-191.797-43.113-289.03
					c85.612-102.323,14.123-287.505,124.318-342.705c192.011-96.179,326.218,211.214,257.676,446.102
					c-68.541,234.887,74.043,173.958,165.469,231.648c8.183,5.836,20.421,15.515,32.697,29.682
					c75.572,87.217,21.524,193.346,45.922,315.669C1467.909,1656.132,1626.486,1750.129,1611.94,1765.41z"/>
				<g>
					<defs>
						<path id="SVGID_00000021836055772799977130000000831707565326925750_" d="M1448.318,1557.836l-173.675,232.151
							c-41.484-9.292-112.267-34.114-90.196-93.059c30.685-81.951-82.423-165.313-136.61-175.565
							c-67.066-12.688-222.437-45.491-176.943-172.819c37.872-106,83.481-167.874-19.228-250.602
							c-102.709-82.729-124.466-191.798-43.112-289.031c85.612-102.323,14.122-287.505,124.318-342.703
							c192.011-96.181,326.216,211.213,257.676,446.101c-68.541,234.887,74.042,173.959,165.469,231.648
							c124.819,78.758-25.645,229.995-11.575,308.406C1355.471,1513.833,1411.17,1543.701,1448.318,1557.836z"/>
					</defs>
					<clipPath id="SVGID_00000108277377454883399380000013078345444855883445_">
						<use xlink:href="#SVGID_00000021836055772799977130000000831707565326925750_"  style="overflow:visible;"/>
					</clipPath>
					<g style="opacity:0.5;clip-path:url(#SVGID_00000108277377454883399380000013078345444855883445_);">
						<path style="fill:#FCFDFE;" d="M1331.688,1641.793l-4.619,4.263C1035.785,1324.486,909.855,853.294,998.424,416.36
							l5.976,0.885C916.204,852.338,1041.614,1321.559,1331.688,1641.793z"/>
						<path style="fill:#FCFDFE;" d="M1188.653,1451.922l-3.741,5.047c-138.432-99.71-338.388-53.319-340.392-52.838l-1.088-5.953
							C845.461,1397.69,1048.038,1350.641,1188.653,1451.922z"/>
						<path style="fill:#FCFDFE;" d="M1279.798,1581.075l-5.581,2.793c-71.757-158.757,108.827-438.41,110.66-441.216l5.044,3.146
							C1388.108,1148.573,1209.405,1425.337,1279.798,1581.075z"/>
						<path style="fill:#FCFDFE;" d="M1021.695,1056.724l-5.351,3.251C948.619,940.003,739.668,896.614,737.566,896.19l1.528-6.007
							C741.222,890.611,952.719,934.535,1021.695,1056.724z"/>
						<path style="fill:#FCFDFE;" d="M978.504,778.68l-6.066-0.313c17.519-161.038,184.238-309.919,185.924-311.405l3.878,4.496
							C1160.573,472.923,995.747,620.151,978.504,778.68z"/>
					</g>
				</g>
			</g>
		</g>
		<g>
			
				<linearGradient id="SVGID_00000160156171408636150050000012383975100036899726_" gradientUnits="userSpaceOnUse" x1="1519.808" y1="1421.0969" x2="1710.5605" y2="2111.9287">
				<stop  offset="0" style="stop-color:#FFC444"/>
				<stop  offset="0.9964" style="stop-color:#F36F56"/>
			</linearGradient>
			<path style="fill:url(#SVGID_00000160156171408636150050000012383975100036899726_);" d="M566.082,1774.719l1119.545-833.432
				c58.692-43.693,140.94-35.822,190.28,18.21l813.918,891.305l-919.611,457.49L566.082,1774.719z"/>
			<path style="fill:#D8DEE8;" d="M579.271,1797.265l1119.546-833.433c58.692-43.693,140.94-35.822,190.28,18.21l813.918,891.306
				l-919.611,457.489L579.271,1797.265z"/>
			<g>
				
					<linearGradient id="SVGID_00000054980807094409826870000003582489043534854056_" gradientUnits="userSpaceOnUse" x1="978.0058" y1="2464.5159" x2="96.9548" y2="2558.0354">
					<stop  offset="0" style="stop-color:#FFC444"/>
					<stop  offset="0.9964" style="stop-color:#F36F56"/>
				</linearGradient>
				<path style="fill:url(#SVGID_00000054980807094409826870000003582489043534854056_);" d="M2603.178,1826.293l-1987.273-68.554
					c-41.963-1.448-76.77,32.179-76.77,74.168v1280.799c0,43.174,36.711,77.234,79.763,74.004l1987.273-149.095
					c38.723-2.905,68.659-35.171,68.659-74.004V1900.46C2674.831,1860.47,2643.145,1827.672,2603.178,1826.293z"/>
			</g>
			<g>
				
					<linearGradient id="SVGID_00000121992850507517379310000010613176839748205471_" gradientUnits="userSpaceOnUse" x1="1448.4976" y1="2079.9307" x2="2181.887" y2="3704.2156">
					<stop  offset="0" style="stop-color:#FFC444"/>
					<stop  offset="0.9964" style="stop-color:#F36F56"/>
				</linearGradient>
				<path style="fill:url(#SVGID_00000121992850507517379310000010613176839748205471_);" d="M2637.338,1826.293l-1987.273-68.554
					c-41.963-1.448-76.77,32.179-76.77,74.168v1280.799c0,43.174,36.711,77.234,79.764,74.004l1987.273-149.095
					c38.723-2.905,68.659-35.171,68.659-74.004V1900.46C2708.991,1860.47,2677.304,1827.672,2637.338,1826.293z"/>
			</g>
			<g>
				
					<linearGradient id="SVGID_00000112626034799652888940000000661989833194361987_" gradientUnits="userSpaceOnUse" x1="1622.9559" y1="2295.136" x2="1695.1505" y2="717.8022">
					<stop  offset="0" style="stop-color:#FFC444"/>
					<stop  offset="0.9964" style="stop-color:#F36F56"/>
				</linearGradient>
				<path style="fill:url(#SVGID_00000112626034799652888940000000661989833194361987_);" d="M1857.121,2538.527l832.705-687.725
					c-13.023-14.431-31.597-23.788-52.488-24.508l-1987.273-68.555c-18.908-0.652-36.349,5.833-49.822,16.98l1113.202,769.936
					C1757.312,2574.995,1815.997,2572.492,1857.121,2538.527z"/>
				
					<linearGradient id="SVGID_00000137818970326546321510000011418219246011439273_" gradientUnits="userSpaceOnUse" x1="1448.478" y1="2079.9399" x2="2181.8677" y2="3704.2253">
					<stop  offset="0" style="stop-color:#FFC444"/>
					<stop  offset="0.9964" style="stop-color:#F36F56"/>
				</linearGradient>
				<path style="fill:url(#SVGID_00000137818970326546321510000011418219246011439273_);" d="M1857.121,2538.527
					c-41.125,33.965-99.81,36.469-143.677,6.127L600.242,1774.719c-16.427,13.59-26.948,34.118-26.948,57.187v1280.8
					c0,43.174,36.711,77.234,79.764,74.004l1987.273-149.095c38.723-2.906,68.659-35.172,68.659-74.004V1900.461
					c0-19.086-7.274-36.484-19.165-49.659L1857.121,2538.527z"/>
			</g>
			
				<linearGradient id="SVGID_00000010993750075923765220000015077169493380335550_" gradientUnits="userSpaceOnUse" x1="1694.808" y1="1108.0688" x2="1587.7173" y2="2624.2495">
				<stop  offset="0" style="stop-color:#FFFFFF"/>
				<stop  offset="1" style="stop-color:#D8DEE8"/>
			</linearGradient>
			<path style="fill:url(#SVGID_00000010993750075923765220000015077169493380335550_);" d="M1857.121,2538.527l832.705-687.725
				c-13.023-14.431-31.597-23.788-52.488-24.508l-1987.273-68.555c-18.908-0.652-36.349,5.833-49.822,16.98l1113.202,769.936
				C1757.312,2574.995,1815.997,2572.492,1857.121,2538.527z"/>
			
				<linearGradient id="SVGID_00000053507543648413843520000005423069555555756698_" gradientUnits="userSpaceOnUse" x1="1656.2479" y1="1986.1285" x2="2389.6375" y2="3610.4141">
				<stop  offset="0" style="stop-color:#FFC444"/>
				<stop  offset="0.9964" style="stop-color:#F36F56"/>
			</linearGradient>
			<path style="opacity:0.37;fill:url(#SVGID_00000053507543648413843520000005423069555555756698_);" d="M2689.826,1850.802
				l-832.705,687.725c-41.125,33.965-99.81,36.469-143.677,6.127L600.242,1774.719c-16.427,13.59-26.948,34.118-26.948,57.187
				v188.893c40.219-16.903,74.253-20.146,101.916-17.835c76.479,6.389,94.74,54.132,241.182,123.052
				c136.924,64.441,151.289,36.977,211.649,83.676c116.287,89.968,65.432,193.809,167.351,290.402
				c106.131,100.585,197.702,22.508,349.468,118.13c160.37,101.044,109.032,220.305,241.182,290.402
				c185.144,98.208,374.206-89.048,531.584,9.844c47.585,29.901,78.009,77.023,97.622,128.528l125.083-9.384
				c38.723-2.906,68.659-35.172,68.659-74.004V1900.461C2708.991,1881.375,2701.717,1863.976,2689.826,1850.802z"/>
		</g>
		<g>
			<g>
				<g>
					
						<linearGradient id="SVGID_00000129171664830329021450000003894152452838731912_" gradientUnits="userSpaceOnUse" x1="-7785.438" y1="1217.1842" x2="-8165.2085" y2="1665.0653" gradientTransform="matrix(0.9221 -0.3871 0.3871 0.9221 8390.4365 -2387.2087)">
						<stop  offset="0" style="stop-color:#311944"/>
						<stop  offset="1" style="stop-color:#893976"/>
					</linearGradient>
					<path style="fill:url(#SVGID_00000129171664830329021450000003894152452838731912_);" d="M1889.906,2402.461
						c-46.438,16.087-101.171,5.363-138.068-31.05l-520.275-513.505c-47.372-46.759-47.683-122.055-0.522-168.601
						c47.495-46.869,147.839-57.271,196.071-10.168l529.815,517.44c49.95,48.786,48.919,125.496-2.107,170.915
						C1942.253,2378.677,1905.225,2397.154,1889.906,2402.461z"/>
					
						<linearGradient id="SVGID_00000101070702111610136050000011892411855873933447_" gradientUnits="userSpaceOnUse" x1="-7832.2168" y1="1177.5192" x2="-8211.9873" y2="1625.4005" gradientTransform="matrix(0.9221 -0.3871 0.3871 0.9221 8390.4365 -2387.2087)">
						<stop  offset="0" style="stop-color:#311944"/>
						<stop  offset="1" style="stop-color:#893976"/>
					</linearGradient>
					<path style="opacity:0.3;fill:url(#SVGID_00000101070702111610136050000011892411855873933447_);" d="M1231.041,1689.306
						c47.495-46.87,147.839-57.271,196.071-10.168l484.433,473.116c-45.055,6.623-92.806,27.773-156.03,6.65
						c-105.252-35.163-103.695-137.502-196.999-188.909c-42.65-23.499-109.781-38.906-219.448-5.982l-107.505-106.106
						C1184.191,1811.147,1183.88,1735.851,1231.041,1689.306z"/>
				</g>
				<g>
					
						<linearGradient id="SVGID_00000069367634100645361890000011323049147361527222_" gradientUnits="userSpaceOnUse" x1="7766.4824" y1="899.0615" x2="7459.9424" y2="1260.579" gradientTransform="matrix(-0.9221 0.3871 0.3871 0.9221 7785.1978 -2132.9646)">
						<stop  offset="0" style="stop-color:#311944"/>
						<stop  offset="1" style="stop-color:#893976"/>
					</linearGradient>
					<path style="fill:url(#SVGID_00000069367634100645361890000011323049147361527222_);" d="M1023.25,1631.293
						c2.227-0.935,4.506-1.693,6.823-2.312l159.402-68.984l174.793,416.385l-155.525,62.796c-3.553,2.678-7.377,4.907-11.484,6.631
						c-54.885,23.04-138.331-51.075-186.382-165.541C962.826,1765.803,968.365,1654.333,1023.25,1631.293z"/>
					
						<linearGradient id="SVGID_00000162327943294055192220000011938627398151156622_" gradientUnits="userSpaceOnUse" x1="-7610.0771" y1="395.3826" x2="-7259.6069" y2="2333.9121" gradientTransform="matrix(0.9221 -0.3871 0.3871 0.9221 8390.4365 -2387.2087)">
						<stop  offset="0" style="stop-color:#AA80F9"/>
						<stop  offset="0.9964" style="stop-color:#6165D7"/>
					</linearGradient>
					<path style="fill:url(#SVGID_00000162327943294055192220000011938627398151156622_);" d="M1189.475,1559.997
						c-2.454,164.115,55.542,302.27,174.793,416.385l1351.991-117.068L2237.971,685.488L1189.475,1559.997z"/>
					
						<linearGradient id="SVGID_00000166673150864088997350000014298658990945875891_" gradientUnits="userSpaceOnUse" x1="-7730.0044" y1="398.9027" x2="-7375.1646" y2="2361.6038" gradientTransform="matrix(0.9221 -0.3871 0.3871 0.9221 8390.4365 -2387.2087)">
						<stop  offset="0" style="stop-color:#AA80F9"/>
						<stop  offset="0.9964" style="stop-color:#6165D7"/>
					</linearGradient>
					<path style="opacity:0.3;fill:url(#SVGID_00000166673150864088997350000014298658990945875891_);" d="M2250.487,1650.786
						c-131.273,4.636-235.444-144.906-369.26-95.236c-105,38.974-94.028,152.204-199.66,183.837
						c-108.13,32.382-172.345-71.897-304.747-62.574c-60.199,4.24-113.936,30.685-161.095,68.261
						c27.573,85.82,76.964,162.811,148.544,231.307l1351.991-117.068l-237.042-367.215
						C2390.527,1609.918,2314.127,1648.538,2250.487,1650.786z"/>
					
						<linearGradient id="SVGID_00000016770184049726084560000005126683330688025491_" gradientUnits="userSpaceOnUse" x1="6505.1836" y1="668.5338" x2="5807.0547" y2="1491.8701" gradientTransform="matrix(-0.9221 0.3871 0.3871 0.9221 7785.1978 -2132.9646)">
						<stop  offset="0.0036" style="stop-color:#E38DDD"/>
						<stop  offset="1" style="stop-color:#9571F6"/>
					</linearGradient>
					<path style="fill:url(#SVGID_00000016770184049726084560000005126683330688025491_);" d="M2237.023,1367.763
						c140.107,333.758,383.418,549.861,543.451,482.682c160.032-67.18,176.185-392.203,36.078-725.961
						S2433.133,574.622,2273.1,641.802C2113.067,708.981,2096.915,1034.005,2237.023,1367.763z"/>
					
						<linearGradient id="SVGID_00000078047327159585601230000008224979358413552316_" gradientUnits="userSpaceOnUse" x1="6554.0767" y1="1070.0634" x2="5881.0693" y2="1087.2095" gradientTransform="matrix(-0.9221 0.3871 0.3871 0.9221 7785.1978 -2132.9646)">
						<stop  offset="0" style="stop-color:#311944"/>
						<stop  offset="1" style="stop-color:#893976"/>
					</linearGradient>
					<path style="fill:url(#SVGID_00000078047327159585601230000008224979358413552316_);" d="M2771.866,1829.94
						c33.975-14.262,61.377-42.529,81.442-84.017c20.422-42.224,32.382-95.919,35.547-159.596
						c6.652-133.86-26.307-294.822-92.808-453.237c-66.5-158.413-158.31-294.671-258.517-383.673
						c-47.668-42.338-94.373-71.407-138.814-86.403c-43.667-14.733-83.034-14.971-117.009-0.709
						c-33.975,14.262-61.376,42.529-81.442,84.017c-20.421,42.224-32.382,95.92-35.547,159.597
						c-2.781,55.97,1.362,116.679,11.988,179.958c14.787,88.061,104.412,148.846,143.107,241.022
						c41.146,98.015,29.693,219.804,86.211,294.91c34.827,46.282,71.812,87.085,110.018,121.019
						c47.669,42.338,94.373,71.407,138.814,86.402C2698.524,1843.965,2737.892,1844.203,2771.866,1829.94z"/>
					<g>
						<defs>
							<path id="SVGID_00000014609310577503534270000013141058366295677340_" d="M2771.866,1829.94
								c33.975-14.262,61.377-42.529,81.442-84.017c20.422-42.224,32.382-95.919,35.547-159.596
								c6.652-133.86-26.307-294.822-92.808-453.237c-66.5-158.413-158.31-294.671-258.517-383.673
								c-47.668-42.338-94.373-71.407-138.814-86.403c-43.667-14.733-83.034-14.971-117.009-0.709
								c-33.975,14.262-61.376,42.529-81.442,84.017c-20.421,42.224-32.382,95.92-35.547,159.597
								c-6.652,133.859,26.307,294.822,92.808,453.235c66.5,158.415,158.31,294.672,258.517,383.674
								c47.669,42.338,94.373,71.407,138.814,86.402C2698.524,1843.965,2737.892,1844.203,2771.866,1829.94z"/>
						</defs>
						<clipPath id="SVGID_00000060003840306185507080000003825421593091342216_">
							<use xlink:href="#SVGID_00000014609310577503534270000013141058366295677340_"  style="overflow:visible;"/>
						</clipPath>
						
							<linearGradient id="SVGID_00000037682119861850400030000017620529953988717702_" gradientUnits="userSpaceOnUse" x1="-7140.9131" y1="456.6245" x2="-6912.085" y2="1722.3253" gradientTransform="matrix(0.9221 -0.3871 0.3871 0.9221 8390.4365 -2387.2087)">
							<stop  offset="0" style="stop-color:#FFC444"/>
							<stop  offset="0.9964" style="stop-color:#F36F56"/>
						</linearGradient>
						
							<path style="clip-path:url(#SVGID_00000060003840306185507080000003825421593091342216_);fill:url(#SVGID_00000037682119861850400030000017620529953988717702_);" d="
							M2553.963,1244.041c64.272,153.107,13.924,317.234-110.674,365.891c-122.67,47.905-271.383-34.465-333.867-183.31
							c-62.483-148.846-16.495-311.183,104.401-363.315C2336.618,1010.355,2489.69,1090.934,2553.963,1244.041z"/>
						
							<linearGradient id="SVGID_00000042730850742313317920000005725557165016216230_" gradientUnits="userSpaceOnUse" x1="-7008.9624" y1="619.6785" x2="-6840.1221" y2="1553.5715" gradientTransform="matrix(0.9221 -0.3871 0.3871 0.9221 8390.4365 -2387.2087)">
							<stop  offset="0" style="stop-color:#FFC444"/>
							<stop  offset="0.9964" style="stop-color:#F36F56"/>
						</linearGradient>
						
							<path style="opacity:0.3;clip-path:url(#SVGID_00000060003840306185507080000003825421593091342216_);fill:url(#SVGID_00000042730850742313317920000005725557165016216230_);" d="
							M2533.438,1249.727c47.727,113.693,36.225,224.703-24.817,247.619c-60.097,22.562-145.752-49.004-192.15-159.533
							c-46.399-110.529-37.025-220.675,21.755-246.376C2397.928,1065.332,2485.711,1136.034,2533.438,1249.727z"/>
					</g>
				</g>
			</g>
			<g>
				
					<linearGradient id="SVGID_00000117671107540958903100000016034443171844581808_" gradientUnits="userSpaceOnUse" x1="1954.9393" y1="274.0769" x2="2247.0347" y2="815.8271" gradientTransform="matrix(0.9082 -0.4185 0.4185 0.9082 605.229 1233.533)">
					<stop  offset="0" style="stop-color:#FFC444"/>
					<stop  offset="0.9964" style="stop-color:#F36F56"/>
				</linearGradient>
				<path style="fill:url(#SVGID_00000117671107540958903100000016034443171844581808_);" d="M2828.858,671.989
					c40.594,88.096-16.212,200.851-126.878,251.844c-110.667,50.993-233.287,20.916-273.88-67.18
					c-40.594-88.096,16.212-200.851,126.878-251.844C2665.644,553.815,2788.264,583.893,2828.858,671.989z"/>
				<path style="fill:#FFFFFF;" d="M2600.792,869.053l-69.916-151.732c-4.488-9.74,0.729-19.914,9.732-18.976l162.794,16.961
					c10.296,1.073,16.89,15.383,11.016,23.907l-92.878,134.771C2616.403,881.437,2605.28,878.793,2600.792,869.053z"/>
				<g style="opacity:0.3;">
					
						<linearGradient id="SVGID_00000117657344050057125700000014702350185483791537_" gradientUnits="userSpaceOnUse" x1="1870.475" y1="306.9973" x2="2156.9097" y2="881.8028" gradientTransform="matrix(0.9082 -0.4185 0.4185 0.9082 605.229 1233.533)">
						<stop  offset="0" style="stop-color:#FFC444"/>
						<stop  offset="0.9964" style="stop-color:#F36F56"/>
					</linearGradient>
					<path style="fill:url(#SVGID_00000117657344050057125700000014702350185483791537_);" d="M2731.909,860.785
						c-45.878-35.967-41.732-91.264-88.443-106.647c-47.455-15.628-77.353,33.005-135.392,29.22
						c-22.438-1.463-50.982-10.893-83.489-42.405c-13.401,38.713-13.253,79.31,3.515,115.7
						c40.594,88.096,163.214,118.174,273.88,67.181c25.353-11.682,47.875-26.607,67.051-43.733
						C2753.4,875.146,2741.363,868.198,2731.909,860.785z"/>
				</g>
			</g>
			<g>
				
					<linearGradient id="SVGID_00000002386657747628195270000010567390975339263405_" gradientUnits="userSpaceOnUse" x1="2242.377" y1="902.8384" x2="2602.4131" y2="1570.5986" gradientTransform="matrix(0.9608 -0.2773 0.2773 0.9608 415.3365 696.4851)">
					<stop  offset="0" style="stop-color:#AA80F9"/>
					<stop  offset="0.9964" style="stop-color:#6165D7"/>
				</linearGradient>
				<path style="fill:url(#SVGID_00000002386657747628195270000010567390975339263405_);" d="M3225.106,1013.241
					c33.153,114.876-56.956,241.762-201.263,283.408c-144.307,41.646-288.167-17.718-321.319-132.594
					c-33.153-114.876,56.956-241.763,201.263-283.409C3048.094,839,3191.954,898.365,3225.106,1013.241z"/>
				<path style="fill:#FFFFFF;" d="M2924.542,952.563c-51.616,14.896-81.383,68.814-66.487,120.43
					c9.653,33.449,71.355,99.933,113.595,142.59c17.559,17.732,47.756,9.017,53.167-15.344
					c13.016-58.604,29.808-147.741,20.155-181.19C3030.076,967.434,2976.157,937.667,2924.542,952.563z M2965.994,1096.201
					c-27.713,7.998-56.663-7.984-64.661-35.698c-7.998-27.714,7.985-56.663,35.698-64.661c27.713-7.998,56.663,7.984,64.661,35.698
					C3009.69,1059.254,2993.708,1088.203,2965.994,1096.201z"/>
				<g style="opacity:0.3;">
					
						<linearGradient id="SVGID_00000124847604485279235510000002683535897947482552_" gradientUnits="userSpaceOnUse" x1="2138.2661" y1="943.4158" x2="2491.325" y2="1651.9198" gradientTransform="matrix(0.9608 -0.2773 0.2773 0.9608 415.3365 696.4851)">
						<stop  offset="0" style="stop-color:#AA80F9"/>
						<stop  offset="0.9964" style="stop-color:#6165D7"/>
					</linearGradient>
					<path style="fill:url(#SVGID_00000124847604485279235510000002683535897947482552_);" d="M3071.992,1225.36
						c-49.248-52.329-33.953-118.947-88.028-146.345c-54.935-27.834-100.378,25.894-170.405,10.533
						c-27.073-5.939-60.112-22.718-93.889-67.14c-23.501,44.696-30.84,94.196-17.146,141.647
						c33.152,114.876,177.012,174.241,321.319,132.594c33.059-9.54,63.271-23.557,89.811-40.875
						C3095.523,1246.84,3082.141,1236.144,3071.992,1225.36z"/>
				</g>
			</g>
			<g>
				
					<linearGradient id="SVGID_00000054979059951549638680000014502775126126376325_" gradientUnits="userSpaceOnUse" x1="2649.8501" y1="1788.1647" x2="2938.3132" y2="2323.1785" gradientTransform="matrix(0.9869 0.161 -0.161 0.9869 512.3113 -775.9015)">
					<stop  offset="0" style="stop-color:#FF9085"/>
					<stop  offset="1" style="stop-color:#FB6FBB"/>
				</linearGradient>
				<path style="fill:url(#SVGID_00000054979059951549638680000014502775126126376325_);" d="M3101.464,1606.943
					c-15.283,93.661-118.894,154.935-233.111,136.588c-116.126-18.654-198.931-112.248-183.182-208.764
					c15.749-96.516,123.703-157.037,239.359-135.505C3038.285,1420.439,3116.748,1513.281,3101.464,1606.943z"/>
				
					<linearGradient id="SVGID_00000074413046108609003610000017211107354751710364_" gradientUnits="userSpaceOnUse" x1="2649.8501" y1="1788.1647" x2="2938.3132" y2="2323.1785" gradientTransform="matrix(0.9869 0.161 -0.161 0.9869 512.3113 -775.9015)">
					<stop  offset="0" style="stop-color:#FF9085"/>
					<stop  offset="1" style="stop-color:#FB6FBB"/>
				</linearGradient>
				<path style="fill:url(#SVGID_00000074413046108609003610000017211107354751710364_);" d="M3101.464,1606.943
					c-15.283,93.661-118.894,154.935-233.111,136.588c-116.126-18.654-198.931-112.248-183.182-208.764
					c15.749-96.516,123.703-157.037,239.359-135.505C3038.285,1420.439,3116.748,1513.281,3101.464,1606.943z"/>
				<g>
					<path style="fill:#FFFFFF;" d="M3020.079,1545.553L3020.079,1545.553c-4.776-25.564-23.624-46.468-49.007-51.034
						c-33.246-5.981-65.073,18.311-70.943,54.284c5.87-35.973-16.547-70.022-50.216-76.079
						c-25.928-4.664-50.987,8.616-63.952,31.433l-0.001,0c-48.5,81.494,90.735,188.258,90.735,188.258
						S3039.019,1637.035,3020.079,1545.553z"/>
				</g>
				<g style="opacity:0.3;">
					
						<linearGradient id="SVGID_00000096778374375641408580000013654719942378689958_" gradientUnits="userSpaceOnUse" x1="2569.9314" y1="1818.6653" x2="2853.7415" y2="2388.2036" gradientTransform="matrix(0.9869 0.161 -0.161 0.9869 512.3113 -775.9015)">
						<stop  offset="0" style="stop-color:#FF9085"/>
						<stop  offset="1" style="stop-color:#FB6FBB"/>
					</linearGradient>
					<path style="fill:url(#SVGID_00000096778374375641408580000013654719942378689958_);" d="M2925.926,1707.948
						c-16.725-54.838,16.264-97.95-12.171-136.546c-29.031-39.404-79.166-16.168-123.525-52.046
						c-17.234-13.938-35.061-37.993-43.98-82.68c-32.224,24.402-54.573,58.224-61.078,98.091
						c-15.749,96.516,67.057,190.11,183.182,208.764c26.333,4.23,52.086,4.229,76.306,0.595
						C2935.075,1731.521,2929.365,1719.224,2925.926,1707.948z"/>
				</g>
			</g>
		</g>
		<g>
			<g>
				<g>
					
						<linearGradient id="SVGID_00000000197708311963744540000014782512535880999573_" gradientUnits="userSpaceOnUse" x1="-3706.2305" y1="2346.6006" x2="-2865.498" y2="4142.5874" gradientTransform="matrix(-1 0 0 1 -705.1066 0)">
						<stop  offset="0" style="stop-color:#AA80F9"/>
						<stop  offset="0.9964" style="stop-color:#6165D7"/>
					</linearGradient>
					<path style="fill:url(#SVGID_00000000197708311963744540000014782512535880999573_);" d="M2870.695,2273.782
						c0,0,141.65-245.273,333.215,171.836c149.167,324.795,52.758,686.132-292.336,785.281
						c-345.094,99.148-884.086-101.093-714.905-242.213C2555.543,2689.34,2827.915,2424.008,2870.695,2273.782z"/>
					<g style="opacity:0.3;">
						
							<linearGradient id="SVGID_00000077312958890682105670000003140401368585121974_" gradientUnits="userSpaceOnUse" x1="-3320.0425" y1="2613.9275" x2="-3397.7214" y2="3070.7537" gradientTransform="matrix(-1 0 0 1 -705.1066 0)">
							<stop  offset="0" style="stop-color:#AA80F9"/>
							<stop  offset="0.9964" style="stop-color:#6165D7"/>
						</linearGradient>
						<path style="fill:url(#SVGID_00000077312958890682105670000003140401368585121974_);" d="M3048.439,2494.197
							c10.083,29.706,12.367,114.337,8.112,211.665c-3.796,86.822,4.086,132.214-134.045,195.363
							c-47.346,21.645-80.09,90.331-152.583,131.193c-32.867,18.525-156.677,85.55-316.573,58.466
							c-105.797-17.92-184.569-69.812-237.615-118.165c349.393-292.787,612.943-551.392,654.959-698.936
							c0,0,51.757-89.547,134.99-68.349C2985.493,2227.945,2978.637,2288.564,3048.439,2494.197z"/>
					</g>
					<g style="opacity:0.3;">
						
							<linearGradient id="SVGID_00000000945448783627739560000005971640475855929482_" gradientUnits="userSpaceOnUse" x1="-3706.2307" y1="2346.6008" x2="-2865.4968" y2="4142.5913" gradientTransform="matrix(-1 0 0 1 -705.1066 0)">
							<stop  offset="0" style="stop-color:#AA80F9"/>
							<stop  offset="0.9964" style="stop-color:#6165D7"/>
						</linearGradient>
						<path style="fill:url(#SVGID_00000000945448783627739560000005971640475855929482_);" d="M2359.234,3132.238
							c163.205,90.12,435.777,145.125,638.851-5.704c188.028-139.654,204.78-373.538,211.049-444.914
							c10.955-124.743-13.416-233.364-48.556-320.979c14.122,24.682,28.577,52.851,43.332,84.978
							c149.167,324.795,52.757,686.132-292.336,785.28c-339.681,97.594-867.223-94.884-722.345-235.529
							C2230.404,3041.815,2285.958,3091.776,2359.234,3132.238z"/>
					</g>
				</g>
				
					<linearGradient id="SVGID_00000165935481600632136400000004704158315194526131_" gradientUnits="userSpaceOnUse" x1="-3924.7798" y1="2707.6655" x2="-3163.1609" y2="2707.6655" gradientTransform="matrix(-1 0 0 1 -779.0041 0)">
					<stop  offset="0" style="stop-color:#AA80F9"/>
					<stop  offset="0.9964" style="stop-color:#6165D7"/>
				</linearGradient>
				<path style="opacity:0.3;fill:url(#SVGID_00000165935481600632136400000004704158315194526131_);" d="M2616.345,3159.001
					c4.836,0,9.689-0.055,14.602-0.163c126.045-2.814,303.006-44.681,430.244-228.141
					c107.467-154.952,93.084-329.828,62.095-449.243c-33.538-129.238-93.242-223.159-93.842-224.092
					c-0.671-1.046-2.059-1.343-3.099-0.677c-1.043,0.669-1.345,2.056-0.677,3.099c0.595,0.929,59.964,94.347,93.307,222.921
					c30.724,118.474,44.998,291.92-61.471,445.436c-126.163,181.909-301.656,223.422-426.657,226.211
					c-135.639,3.02-242.576-37.502-243.641-37.911c-1.149-0.448-2.452,0.132-2.898,1.289c-0.446,1.156,0.131,2.455,1.289,2.898
					C2386.629,3121.026,2486.899,3158.996,2616.345,3159.001z"/>
			</g>
			<g>
				<g>
					<g>
						
							<linearGradient id="SVGID_00000111876203823434645160000015991340707180664973_" gradientUnits="userSpaceOnUse" x1="-4350.3281" y1="-820.3022" x2="-4175.7124" y2="-820.3022" gradientTransform="matrix(-0.6567 -0.7542 -0.7542 0.6567 -1529.8027 388.1635)">
							<stop  offset="0" style="stop-color:#40447E"/>
							<stop  offset="0.9964" style="stop-color:#3C3B6B"/>
						</linearGradient>
						<path style="fill:url(#SVGID_00000111876203823434645160000015991340707180664973_);" d="M1939.478,3135.802
							c8.996-9.683,25.112-51.366-4.283-59.93c-29.559-8.611-45.988-19.517-86.691-52.145c-40.703-32.628-51.157-4.61,6.333,48.382
							C1912.325,3125.101,1926.687,3149.571,1939.478,3135.802z"/>
						
							<linearGradient id="SVGID_00000099633864348445323490000011467560301208749494_" gradientUnits="userSpaceOnUse" x1="-2621.0503" y1="3091.6152" x2="-1215.8088" y2="4549.8843" gradientTransform="matrix(-0.9952 0.098 0.098 0.9952 -660.6217 -114.5396)">
							<stop  offset="0" style="stop-color:#FFC444"/>
							<stop  offset="0.9964" style="stop-color:#F36F56"/>
						</linearGradient>
						<path style="fill:url(#SVGID_00000099633864348445323490000011467560301208749494_);" d="M1977.992,3074.934l-24.212,21.14
							c-5.058,4.416-12.416,4.984-18.091,1.396c-2.645-1.672-4.338-4.501-4.563-7.622c-0.225-3.121,1.045-6.163,3.423-8.197
							l35.392-30.283L1977.992,3074.934z"/>
					</g>
					<g>
						
							<linearGradient id="SVGID_00000143590058543575915850000008928370295703226800_" gradientUnits="userSpaceOnUse" x1="-3650.0989" y1="2507.1274" x2="-2786.7109" y2="2965.7139" gradientTransform="matrix(-0.9981 -0.0611 -0.0611 0.9981 -742.5718 49.9065)">
							<stop  offset="0" style="stop-color:#311944"/>
							<stop  offset="1" style="stop-color:#6B3976"/>
						</linearGradient>
						<path style="fill:url(#SVGID_00000143590058543575915850000008928370295703226800_);" d="M2703.185,2871.364
							c42.782,37.477-46.519,160.381-189.175,120.545c-172.873-48.274-392.73-26.58-540.935,94.087
							c-8.598-7.648-29.893-19.65-20.154-29.498c133.883-135.384,257.887-213.104,360.6-233.958
							C2468.806,2791.012,2581.372,2764.653,2703.185,2871.364z"/>
						<g style="opacity:0.24;">
							<path style="fill:#552D63;" d="M2201.656,2922.84c-25.078,14.588-30.424-15.051-43.362-34.549
								c55.534-34.099,107.685-56.097,155.227-65.75c155.285-31.529,267.851-57.887,389.664,48.824
								c42.781,37.477-46.519,160.381-189.176,120.545c-51.594-14.407-107.399-22.423-164.211-23.594
								C2304.104,2939.578,2266.714,2873.643,2201.656,2922.84z"/>
						</g>
					</g>
				</g>
				<g>
					
						<linearGradient id="SVGID_00000101086536990548288180000014350263976931883424_" gradientUnits="userSpaceOnUse" x1="-3977.0239" y1="2712.5637" x2="-3194.1306" y2="2567.1084" gradientTransform="matrix(-0.9981 -0.0611 -0.0611 0.9981 -742.5718 49.9065)">
						<stop  offset="0" style="stop-color:#311944"/>
						<stop  offset="1" style="stop-color:#893976"/>
					</linearGradient>
					<path style="fill:url(#SVGID_00000101086536990548288180000014350263976931883424_);" d="M2728.436,2999.392l8.781,3.356
						c0,0,56.803-53.629,66.926-67.296c12.352-16.675-126.741-59.195-171.91-114.822c-47.462-58.453-9.965,69.395-9.965,69.395
						L2728.436,2999.392z"/>
				</g>
				<g>
					
						<linearGradient id="SVGID_00000001663957807092912990000018431170416559513508_" gradientUnits="userSpaceOnUse" x1="-3414.7319" y1="2552.7424" x2="-3497.9592" y2="2830.167" gradientTransform="matrix(-1 0 0 1 -779.0041 0)">
						<stop  offset="0" style="stop-color:#FFC444"/>
						<stop  offset="0.9964" style="stop-color:#F36F56"/>
					</linearGradient>
					<path style="fill:url(#SVGID_00000001663957807092912990000018431170416559513508_);" d="M2779.948,2473.221
						c0,0-50.427,6.913-105.722,104.963c-41.574,73.719-131.836,134.793-131.836,134.793l-9.268,58.008l74.914,13.16l26.797-17.646
						l73.102-155.535L2779.948,2473.221z"/>
					<g>
						
							<linearGradient id="SVGID_00000018931056985291541100000013400887294844660118_" gradientUnits="userSpaceOnUse" x1="-3695.9885" y1="2489.1047" x2="-4044.386" y2="3755.6284" gradientTransform="matrix(-0.9981 -0.0611 -0.0611 0.9981 -742.5718 49.9065)">
							<stop  offset="0" style="stop-color:#FFC444"/>
							<stop  offset="0.9964" style="stop-color:#F36F56"/>
						</linearGradient>
						<path style="fill:url(#SVGID_00000018931056985291541100000013400887294844660118_);" d="M2877.724,2466.968
							c0,0,124.304,15.331,126.973,158.362c2.464,131.995-45.16,183.134-162.015,293.195c-11.75,11.067-30.805,11.072-32.217,12.663
							c-7.591,8.562-15.286,17.481-23.062,26.812c-104.581-100.362-222.503-134.35-222.503-134.35s109.059-225.621,156.98-300.409
							C2771.29,2446.132,2845.811,2459.299,2877.724,2466.968z"/>
						<g style="opacity:0.3;">
							
								<linearGradient id="SVGID_00000111185877530661245180000011795726264613099950_" gradientUnits="userSpaceOnUse" x1="-3649.1931" y1="2631.166" x2="-3734.7554" y2="2296.5217" gradientTransform="matrix(-0.9981 -0.0611 -0.0611 0.9981 -742.5718 49.9065)">
								<stop  offset="0" style="stop-color:#FFC444"/>
								<stop  offset="0.9964" style="stop-color:#F36F56"/>
							</linearGradient>
							<path style="fill:url(#SVGID_00000111185877530661245180000011795726264613099950_);" d="M2671.346,2800.166
								c52.471,28.075,126.838,24.9,154.186-9.844c20.595-26.165,23.933-35.916,49.005-77.005
								c20.169-33.055,29.989-38.354,74.059-66.184c16.631-10.503,35.507-25.705,54.017-48.49
								c1.169,8.371,1.907,17.232,2.083,26.686c2.464,131.996-45.16,183.134-162.014,293.196
								c-11.75,11.067-30.805,11.071-32.217,12.662c-7.591,8.563-15.286,17.481-23.062,26.813
								c-104.581-100.362-222.503-134.35-222.503-134.35s18.099-35.487,42.07-85.384
								C2624.356,2767.396,2637.685,2782.156,2671.346,2800.166z"/>
						</g>
					</g>
					
						<linearGradient id="SVGID_00000118385869342595326270000001958662470902345908_" gradientUnits="userSpaceOnUse" x1="-3673.5181" y1="2522.917" x2="-3262.5356" y2="2413.9109" gradientTransform="matrix(-0.9981 -0.0611 -0.0611 0.9981 -742.5718 49.9065)">
						<stop  offset="0" style="stop-color:#AB316D"/>
						<stop  offset="1" style="stop-color:#792D3D"/>
					</linearGradient>
					<path style="fill:url(#SVGID_00000118385869342595326270000001958662470902345908_);" d="M2757.053,2804.365
						c0,0-23.557,1.088-40.289-5.652c-16.731-6.74-15.354-8.287-34.612-10.732c-18.719-2.377-55.59-13.488-34.716-32.474
						c23.235-21.133,63.062-15.208,74.506-1.178c11.031,13.524,30.152,22.112,30.152,22.112L2757.053,2804.365z"/>
					
						<linearGradient id="SVGID_00000094597756320260735200000009028340598868943528_" gradientUnits="userSpaceOnUse" x1="-3782.6689" y1="2465.261" x2="-4131.0654" y2="3731.7815" gradientTransform="matrix(-0.9981 -0.0611 -0.0611 0.9981 -742.5718 49.9065)">
						<stop  offset="0" style="stop-color:#FFC444"/>
						<stop  offset="0.9964" style="stop-color:#F36F56"/>
					</linearGradient>
					<path style="fill:url(#SVGID_00000094597756320260735200000009028340598868943528_);" d="M2967.17,2538.263
						c0,0,69.037,8.038,28.753,230.35c-20.893,115.302-124.172,99.07-248.883,51.428c-8.442-17.661,2.422-55.094,2.422-55.094
						s154.941,63.886,158.95-29.315C2912.906,2631.138,2926.89,2527.224,2967.17,2538.263z"/>
					<path style="fill:#9F73F8;" d="M2848.802,2514.264c29.55,0,59.568-21.88,61.007-22.943c0.498-0.367,0.605-1.07,0.235-1.568
						c-0.369-0.5-1.072-0.602-1.568-0.235c-0.397,0.292-39.856,29.064-71.796,21.077c-8.849-2.21-14.906-6.54-18.003-12.867
						c-5.898-12.045,0.785-27.491,0.852-27.645c0.25-0.567-0.008-1.229-0.573-1.479c-0.577-0.246-1.231,0.01-1.479,0.572
						c-0.297,0.671-7.167,16.563-0.817,29.537c3.404,6.949,9.956,11.678,19.474,14.056
						C2840.289,2513.808,2844.541,2514.264,2848.802,2514.264z"/>
					<path style="fill:#AE87F9;" d="M2804.871,2926.617c0.308,0,0.612-0.126,0.833-0.372c0.416-0.458,0.379-1.169-0.082-1.583
						c-1.113-1.003-112.39-100.612-212.848-125.175c-0.615-0.164-1.209,0.225-1.358,0.823c-0.146,0.602,0.223,1.208,0.823,1.358
						c99.908,24.427,210.772,123.661,211.882,124.66C2804.333,2926.52,2804.604,2926.617,2804.871,2926.617z"/>
				</g>
				<g>
					
						<linearGradient id="SVGID_00000077298116440153998920000002613411011365457281_" gradientUnits="userSpaceOnUse" x1="-3457.0471" y1="2931.1814" x2="-3451.0837" y2="2772.3352" gradientTransform="matrix(-0.9955 0.0944 0.0944 0.9955 -849.424 -66.2741)">
						<stop  offset="0" style="stop-color:#AB316D"/>
						<stop  offset="1" style="stop-color:#792D3D"/>
					</linearGradient>
					<path style="fill:url(#SVGID_00000077298116440153998920000002613411011365457281_);" d="M2882.123,2399.807
						c0,0-4.682,53.871-0.453,64.075c4.23,10.203-9.134,24.113-35.544,29.471c-26.41,5.358-5.5-53.722-5.5-53.722L2882.123,2399.807
						z"/>
					
						<linearGradient id="SVGID_00000003789200956890741070000017440049638748070022_" gradientUnits="userSpaceOnUse" x1="4841.0747" y1="3204.4973" x2="4751.5952" y2="2977.2368" gradientTransform="matrix(0.9879 -0.155 0.155 0.9879 -2347.6279 118.478)">
						<stop  offset="0" style="stop-color:#311944"/>
						<stop  offset="1" style="stop-color:#6B3976"/>
					</linearGradient>
					<path style="fill:url(#SVGID_00000003789200956890741070000017440049638748070022_);" d="M2806.028,2403.811
						c-27.451-14.969-26.872-85.242-11.349-90.594c8.915-3.073,13.303,18.586,42.711,31.123
						c22.902,9.764,39.196,4.707,47.549,18.183c3.925,6.331,5.425,15.668,4.15,23.528c-0.656,4.049-2.478,9.291-6.834,19.482
						c-3.865,9.042-3.551,8.698-4.761,11.344c-2.91,6.358-8.802,17.264-20.886,30.989c-1.627-3.868-3.915-8.612-7.146-13.636
						c-1.243-1.932-6.202-9.466-12.809-15.313C2824.623,2408.271,2813.9,2408.103,2806.028,2403.811z"/>
					
						<linearGradient id="SVGID_00000080890105190873127070000011021095289998154129_" gradientUnits="userSpaceOnUse" x1="-3444.2383" y1="2802.2307" x2="-3447.168" y2="3038.2722" gradientTransform="matrix(-0.9955 0.0944 0.0944 0.9955 -849.424 -66.2741)">
						<stop  offset="0" style="stop-color:#AB316D"/>
						<stop  offset="1" style="stop-color:#792D3D"/>
					</linearGradient>
					<path style="fill:url(#SVGID_00000080890105190873127070000011021095289998154129_);" d="M2872.713,2433.504
						c0,0-10.28,25.153-38.371,27.815c-25.151,2.384-37.776-52.848-23.783-67.251c4.668-4.805,15.026-8.153,24.053-7.123
						c5.332,0.608,7.4,2.452,16.13,3.277c8.053,0.761,10.1-0.447,12.749,1.142c3.315,1.988,6.422,7.666,4.173,24.769
						c3.975-5.573,9.378-8.335,13.723-7.078c0.693,0.201,2.59,1.089,3.835,2.696
						C2889.728,2417.567,2885.216,2426.645,2872.713,2433.504z"/>
				</g>
				<g>
					<path style="fill:#26264F;" d="M2740.498,2834.241c1.134,0.165,2.174,0.985,2.461,2.063c0.042,0.159-0.399,5.794-0.384,5.962
						c0.111,1.31-0.694,2.524-1.945,2.93l-105.699,34.333l-197.529-77.358l93.853,7.177L2740.498,2834.241z"/>
					<path style="fill:#444B8C;" d="M2740.544,2833.478c1.301,0.189,2.3,1.25,2.412,2.56c0.111,1.31-0.694,2.524-1.945,2.93
						l-105.701,34.333l-197.532-77.359l93.854,7.177L2740.544,2833.478z"/>
					
						<linearGradient id="SVGID_00000170994333077901467490000007245872745259945880_" gradientUnits="userSpaceOnUse" x1="-3548.7737" y1="2494.4949" x2="-3267.874" y2="2494.4949" gradientTransform="matrix(-0.9981 -0.0611 -0.0611 0.9981 -742.5718 49.9065)">
						<stop  offset="0" style="stop-color:#40447E"/>
						<stop  offset="0.9964" style="stop-color:#3C3B6B"/>
					</linearGradient>
					<path style="fill:url(#SVGID_00000170994333077901467490000007245872745259945880_);" d="M2639.989,2871.76l-15.745-206.056
						c-0.252-3.302-2.743-5.998-6.015-6.51l-236.553-37.025c-2.118-0.332-4.273,0.306-5.87,1.737
						c-1.596,1.431-2.465,3.504-2.366,5.646l8.878,192.058c0.153,3.314,2.57,6.086,5.832,6.69l245.746,45.497L2639.989,2871.76z"/>
					<path style="fill:#26264F;" d="M2634.931,2879.529l-16.239-210.597c-0.255-3.3-2.744-5.993-6.014-6.505l-236.557-37.026
						c-2.118-0.332-4.273,0.306-5.87,1.738c-1.596,1.431-2.465,3.504-2.366,5.646l8.879,192.086
						c0.153,3.302,2.552,6.067,5.799,6.684L2634.931,2879.529z"/>
					<path style="fill:#1F1F44;" d="M2634.93,2879.528l-252.368-47.975c-3.246-0.617-5.646-3.382-5.798-6.684l-2.678-57.93
						c75.179,42.693,169.394,48.123,257.194,65.249L2634.93,2879.528z"/>
				</g>
				<g>
					
						<linearGradient id="SVGID_00000031899264759978012820000011671828536975787138_" gradientUnits="userSpaceOnUse" x1="-3962.6958" y1="1164.3359" x2="-3823.1772" y2="1164.3359" gradientTransform="matrix(-0.9263 -0.3767 -0.3767 0.9263 -1025.4207 267.383)">
						<stop  offset="0" style="stop-color:#40447E"/>
						<stop  offset="0.9964" style="stop-color:#3C3B6B"/>
					</linearGradient>
					<path style="fill:url(#SVGID_00000031899264759978012820000011671828536975787138_);" d="M2207.491,2836.362
						c3.45-11.98,11.075-25.218-16.142-34.877c-19.758-7.012-54.079-9.265-85.274-10.865c-43.713-2.242-53.768,23.912,10.117,40.55
						C2158.028,2842.066,2202.584,2853.398,2207.491,2836.362z"/>
					
						<linearGradient id="SVGID_00000062175245024360324220000004423177087974183815_" gradientUnits="userSpaceOnUse" x1="-3136.8972" y1="2537.9902" x2="-1731.5975" y2="3996.3196" gradientTransform="matrix(-0.9981 -0.0611 -0.0611 0.9981 -742.5718 49.9065)">
						<stop  offset="0" style="stop-color:#FFC444"/>
						<stop  offset="0.9964" style="stop-color:#F36F56"/>
					</linearGradient>
					<path style="fill:url(#SVGID_00000062175245024360324220000004423177087974183815_);" d="M2173.43,2818.021
						c-0.41,6.703,3.858,11.965,9.432,12.761c12.934,1.847,10.507-4.812,10.918-11.515c0.41-6.704,5.64-11.358-9.431-12.761
						C2178.742,2805.985,2173.841,2811.318,2173.43,2818.021z"/>
					
						<linearGradient id="SVGID_00000069395985657962108670000007288026618396955027_" gradientUnits="userSpaceOnUse" x1="-3720.04" y1="2637.7271" x2="-3076.4207" y2="2574.9812" gradientTransform="matrix(-0.9981 -0.0611 -0.0611 0.9981 -742.5718 49.9065)">
						<stop  offset="0" style="stop-color:#311944"/>
						<stop  offset="1" style="stop-color:#6B3976"/>
					</linearGradient>
					<path style="fill:url(#SVGID_00000069395985657962108670000007288026618396955027_);" d="M2306.158,2779.467l-12.768-2.012
						c0,0-24.873,2.326-93.417,21.225c-14.674,2.434-34.679,45.26,8.317,46.941c42.995,1.681,95.324,33.698,95.324,33.698
						L2306.158,2779.467z"/>
					
						<linearGradient id="SVGID_00000116222003326256153830000015208754595659618738_" gradientUnits="userSpaceOnUse" x1="-3967.5027" y1="2763.8064" x2="-3184.6047" y2="2618.3501" gradientTransform="matrix(-0.9981 -0.0611 -0.0611 0.9981 -742.5718 49.9065)">
						<stop  offset="0" style="stop-color:#311944"/>
						<stop  offset="1" style="stop-color:#893976"/>
					</linearGradient>
					<path style="fill:url(#SVGID_00000116222003326256153830000015208754595659618738_);" d="M2752.56,2978.725
						c0,0-6.261,55.573-135.484,50.516c-129.224-5.057-360.073-139.205-358.62-209.597c1.454-70.393,87.358-42.272,176.301-1.584
						c75.073,34.343,191.036,54.233,214.802,57.92C2679.987,2880.701,2759.91,2952.03,2752.56,2978.725z"/>
					<g style="opacity:0.2;">
						
							<linearGradient id="SVGID_00000096772469464113031800000000488150883035750319_" gradientUnits="userSpaceOnUse" x1="-3688.2544" y1="2661.772" x2="-3214.6038" y2="2560.5396" gradientTransform="matrix(-0.9981 -0.0611 -0.0611 0.9981 -742.5718 49.9065)">
							<stop  offset="0" style="stop-color:#311944"/>
							<stop  offset="1" style="stop-color:#6B3976"/>
						</linearGradient>
						<path style="fill:url(#SVGID_00000096772469464113031800000000488150883035750319_);" d="M2583.479,2909.079
							c-59.815-6.094-73.246-49.019-147.677-61.43c-48.235-8.043-65.267,6.203-89.855-10.265c-19.41-13-29.317-35.665-34.087-60.282
							c32.986,2.796,77.509,20.194,122.896,40.957c72.916,33.355,184.405,53.078,212.528,57.563
							c0.833,0.133,19.686-6.61,19.686-6.61s14.034,8.019,24.098,14.351C2651.856,2904.382,2605.326,2911.304,2583.479,2909.079z"/>
					</g>
				</g>
			</g>
		</g>
	</g>
</g>
</svg>
